# xmcd
#
# Track frame offsets:
#	150
#	23850
#	79651
#	110597
#	145814
#	163306
#	192994
#	224133
#	257214
#	273489
#
# Disc length: 4064 seconds
#
# Revision: 1
# Processed by: cddbd v1.5.1PL0 Copyright (c) Steve Scherf et al.
# Submitted via: audiograbber 1.83.01
#
DISCID=9b0fde0a
DTITLE=Michael Locke and the Repeat Offenders - Get Offended Live
DYEAR=2004
DGENRE=Blues
TTITLE0=Austin Backwash
TTITLE1=Hideaway - I'm Leavin' You
TTITLE2=Scratch My Back
TTITLE3=Little By Little
TTITLE4=Too Many Cooks
TTITLE5=Dimples
TTITLE6=Chicken Fried Snake
TTITLE7=Miami Rain
TTITLE8=Heads Up
TTITLE9=Just Pickin'
EXTD=
EXTT0=
EXTT1=
EXTT2=
EXTT3=
EXTT4=
EXTT5=
EXTT6=
EXTT7=
EXTT8=
EXTT9=
PLAYORDER=
